<svg width="329" height="315" viewBox="0 0 329 315" fill="none" xmlns="http://www.w3.org/2000/svg">
<circle cx="165.5" cy="157.5" r="132.987" stroke="#ECECEC" stroke-width="49.0268"/>
<path d="M256.894 255.199C276.218 236.749 289.519 212.893 295.058 186.756C300.596 160.619 298.114 133.418 287.935 108.716C277.755 84.0137 260.354 62.9606 238.01 48.3133C215.665 33.666 189.419 26.1071 162.706 26.6263" stroke="#1183DC" stroke-width="32.6846" stroke-linecap="round"/>
<path d="M127.186 149.074H136.362V156.7H127.186V166H117.886V156.7H88.0642V149.694L112.12 122.6H127.186V149.074ZM98.2322 149.074H117.886V127.064L98.2322 149.074ZM146.984 160.73C142.85 156.721 140.784 151.244 140.784 144.3C140.784 137.356 142.85 131.879 146.984 127.87C151.117 123.861 156.697 121.856 163.724 121.856C170.75 121.856 176.31 123.861 180.402 127.87C184.535 131.879 186.602 137.356 186.602 144.3C186.602 151.244 184.535 156.721 180.402 160.73C176.31 164.739 170.75 166.744 163.724 166.744C156.697 166.744 151.117 164.739 146.984 160.73ZM153.742 133.45C151.303 136.054 150.084 139.671 150.084 144.3C150.084 148.929 151.303 152.567 153.742 155.212C156.18 157.816 159.508 159.118 163.724 159.118C167.94 159.118 171.246 157.816 173.644 155.212C176.082 152.567 177.302 148.929 177.302 144.3C177.302 139.671 176.082 136.054 173.644 133.45C171.246 130.805 167.94 129.482 163.724 129.482C159.508 129.482 156.18 130.805 153.742 133.45ZM199.478 160.73C195.344 156.721 193.278 151.244 193.278 144.3C193.278 137.356 195.344 131.879 199.478 127.87C203.611 123.861 209.191 121.856 216.218 121.856C223.244 121.856 228.804 123.861 232.896 127.87C237.029 131.879 239.096 137.356 239.096 144.3C239.096 151.244 237.029 156.721 232.896 160.73C228.804 164.739 223.244 166.744 216.218 166.744C209.191 166.744 203.611 164.739 199.478 160.73ZM206.236 133.45C203.797 136.054 202.578 139.671 202.578 144.3C202.578 148.929 203.797 152.567 206.236 155.212C208.674 157.816 212.002 159.118 216.218 159.118C220.434 159.118 223.74 157.816 226.138 155.212C228.576 152.567 229.796 148.929 229.796 144.3C229.796 139.671 228.576 136.054 226.138 133.45C223.74 130.805 220.434 129.482 216.218 129.482C212.002 129.482 208.674 130.805 206.236 133.45Z" fill="#1183DC"/>
<path d="M110.628 190.384C113.47 190.384 115.771 191.07 117.53 192.443C119.29 193.816 120.169 195.623 120.169 197.866C120.169 200.147 119.241 201.965 117.385 203.318C115.529 204.671 112.997 205.348 109.787 205.348C106.617 205.348 104.094 204.555 102.218 202.97C100.362 201.385 99.4344 198.842 99.4344 195.343C99.4344 192.172 100.082 189.746 101.377 188.064C102.692 186.382 104.838 185.27 107.815 184.729C108.84 184.536 110.735 184.304 113.499 184.033C115.607 183.801 117.115 183.559 118.023 183.308V186.672C117.134 187.059 115.79 187.329 113.992 187.484C113.567 187.523 113.151 187.561 112.745 187.6C112.339 187.619 111.875 187.648 111.353 187.687C110.831 187.726 110.377 187.755 109.99 187.774C108.888 187.871 107.989 188.016 107.293 188.209C106.597 188.383 105.901 188.692 105.205 189.137C104.509 189.582 103.958 190.239 103.552 191.109C103.166 191.96 102.885 193.052 102.711 194.386C103.33 193.129 104.316 192.153 105.669 191.457C107.023 190.742 108.676 190.384 110.628 190.384ZM109.787 202.071C111.701 202.071 113.2 201.694 114.282 200.94C115.365 200.186 115.906 199.161 115.906 197.866C115.906 196.571 115.365 195.546 114.282 194.792C113.2 194.038 111.701 193.661 109.787 193.661C107.893 193.661 106.404 194.038 105.321 194.792C104.258 195.546 103.726 196.571 103.726 197.866C103.726 199.161 104.258 200.186 105.321 200.94C106.404 201.694 107.893 202.071 109.787 202.071ZM132.43 189.456C138.385 189.495 141.362 191.795 141.362 196.358V205H137.36V201.781C135.775 204.159 133.126 205.348 129.414 205.348C127.133 205.348 125.402 204.932 124.223 204.101C123.063 203.25 122.483 202.148 122.483 200.795C122.483 199.287 123.189 198.175 124.6 197.46C126.031 196.725 128.177 196.271 131.038 196.097L137.041 195.72V195.459C137.041 194.531 136.654 193.796 135.881 193.255C135.127 192.694 133.977 192.414 132.43 192.414C129.762 192.414 128.177 193.11 127.674 194.502H123.614C123.769 193.284 124.281 192.288 125.151 191.515C126.021 190.742 127.065 190.2 128.283 189.891C129.501 189.582 130.883 189.437 132.43 189.456ZM130.574 202.39C132.527 202.39 134.093 202.032 135.272 201.317C136.451 200.582 137.041 199.703 137.041 198.678V198.156L131.589 198.533C129.965 198.63 128.757 198.842 127.964 199.171C127.171 199.48 126.775 199.944 126.775 200.563C126.775 201.124 127.094 201.568 127.732 201.897C128.37 202.226 129.317 202.39 130.574 202.39ZM148.141 189.804H163.743V205H159.451V193.371H151.882C151.554 197.102 151.322 199.326 151.186 200.041C150.78 202.303 149.997 203.792 148.837 204.507C148.083 204.971 147.088 205.203 145.85 205.203C145.174 205.203 144.516 205.164 143.878 205.087V201.549C144.342 201.588 144.671 201.607 144.864 201.607C145.309 201.607 145.676 201.539 145.966 201.404C146.276 201.269 146.537 201.037 146.749 200.708C146.962 200.36 147.136 199.935 147.271 199.432C147.407 198.929 147.513 198.291 147.59 197.518C147.687 196.725 147.764 195.846 147.822 194.879C147.9 193.912 147.977 192.762 148.054 191.428C148.093 190.713 148.122 190.171 148.141 189.804ZM170.713 189.804H186.315V205H182.023V193.371H174.454C174.125 197.102 173.893 199.326 173.758 200.041C173.352 202.303 172.569 203.792 171.409 204.507C170.655 204.971 169.659 205.203 168.422 205.203C167.745 205.203 167.088 205.164 166.45 205.087V201.549C166.914 201.588 167.242 201.607 167.436 201.607C167.88 201.607 168.248 201.539 168.538 201.404C168.847 201.269 169.108 201.037 169.321 200.708C169.533 200.36 169.707 199.935 169.843 199.432C169.978 198.929 170.084 198.291 170.162 197.518C170.258 196.725 170.336 195.846 170.394 194.879C170.471 193.912 170.548 192.762 170.626 191.428C170.664 190.713 170.693 190.171 170.713 189.804ZM192.414 203.26C190.538 201.849 189.601 199.896 189.601 197.402C189.601 194.908 190.538 192.965 192.414 191.573C194.289 190.162 196.812 189.456 199.983 189.456C203.134 189.456 205.647 190.162 207.523 191.573C209.398 192.965 210.336 194.908 210.336 197.402C210.336 199.896 209.398 201.849 207.523 203.26C205.647 204.652 203.134 205.348 199.983 205.348C196.812 205.348 194.289 204.652 192.414 203.26ZM195.517 194.038C194.434 194.908 193.893 196.029 193.893 197.402C193.893 198.775 194.434 199.896 195.517 200.766C196.619 201.636 198.107 202.071 199.983 202.071C201.858 202.071 203.337 201.636 204.42 200.766C205.522 199.896 206.073 198.775 206.073 197.402C206.073 196.029 205.522 194.908 204.42 194.038C203.337 193.168 201.858 192.733 199.983 192.733C198.107 192.733 196.619 193.168 195.517 194.038ZM226.745 197.083C228.465 197.257 229.751 197.634 230.602 198.214C231.472 198.775 231.907 199.625 231.907 200.766C231.907 201.288 231.81 201.781 231.617 202.245C231.423 202.69 231.085 203.134 230.602 203.579C230.118 204.024 229.384 204.372 228.398 204.623C227.431 204.874 226.242 205 224.831 205H213.608V189.804H224.338C226.754 189.804 228.504 190.162 229.587 190.877C230.669 191.573 231.211 192.491 231.211 193.632C231.211 195.527 229.722 196.677 226.745 197.083ZM217.929 192.82V195.952H223.816C225.865 195.952 226.89 195.43 226.89 194.386C226.89 193.342 225.788 192.82 223.584 192.82H217.929ZM224.222 201.984C226.464 201.984 227.586 201.414 227.586 200.273C227.586 199.712 227.315 199.287 226.774 198.997C226.232 198.707 225.314 198.562 224.019 198.562H217.929V201.984H224.222Z" fill="#1183DC"/>
</svg>
