<svg width="228" height="132" viewBox="0 0 228 132" fill="none" xmlns="http://www.w3.org/2000/svg">
<rect width="228" height="132" rx="30" fill="#F9F9F9"/>
<path fill-rule="evenodd" clip-rule="evenodd" d="M88.3711 92.9546L96.7649 41.2607H110.184L101.79 92.9546H88.3711Z" fill="#1183DC"/>
<path fill-rule="evenodd" clip-rule="evenodd" d="M150.436 42.5248C147.785 41.4804 143.589 40.3252 138.398 40.3252C125.145 40.3252 115.812 47.3643 115.756 57.4276C115.646 64.8521 122.438 68.9768 127.519 71.452C132.71 73.981 134.477 75.6304 134.477 77.886C134.422 81.3506 130.281 82.9462 126.415 82.9462C121.059 82.9462 118.187 82.1215 113.824 80.1953L112.056 79.3706L110.18 90.9747C113.328 92.4045 119.125 93.6695 125.145 93.7244C139.226 93.7244 148.392 86.7952 148.503 76.0718C148.558 70.1858 144.969 65.6768 137.238 61.9926C132.544 59.6283 129.673 58.0327 129.673 55.6135C129.728 53.4139 132.102 51.1594 137.403 51.1594C141.766 51.0496 144.969 52.094 147.399 53.1394L148.614 53.6885L150.436 42.5248Z" fill="#1183DC"/>
<path fill-rule="evenodd" clip-rule="evenodd" d="M184.837 41.2607H174.456C171.253 41.2607 168.823 42.1953 167.442 45.549L147.508 92.9546H161.589C161.589 92.9546 163.909 86.5744 164.406 85.1995H181.634C182.021 87.0147 183.237 92.9546 183.237 92.9546H195.661L184.837 41.2607ZM168.27 74.6409C169.375 71.6715 173.628 60.1773 173.628 60.1773C173.573 60.2882 174.732 57.153 175.395 55.228L176.333 59.682C176.333 59.682 178.874 72.057 179.426 74.6409H168.27Z" fill="#1183DC"/>
<path fill-rule="evenodd" clip-rule="evenodd" d="M77.1595 41.2607L64.0169 76.511L62.5813 69.361C60.1513 61.1129 52.5314 52.1499 44.0273 47.6947L56.0652 92.8996H70.2574L91.3517 41.2607H77.1595Z" fill="#1183DC"/>
<path fill-rule="evenodd" clip-rule="evenodd" d="M51.8132 41.2607H30.2205L30 42.3051C46.8428 46.5944 57.9975 56.9334 62.5809 69.361L57.8872 45.6039C57.1143 42.3051 54.7394 41.3695 51.8132 41.2607Z" fill="#FCB316"/>
</svg>
