<svg width="188" height="132" viewBox="0 0 188 132" fill="none" xmlns="http://www.w3.org/2000/svg">
<rect width="188" height="132" rx="30" fill="#F9F9F9"/>
<path d="M80.3547 93.6426H110.439V39.3952L80.3547 39.3952V93.6426Z" fill="#FF5F00"/>
<path d="M108.536 66.5138C108.541 71.7389 107.362 76.8969 105.087 81.597C102.811 86.2971 99.5001 90.4161 95.4035 93.6422C100.476 97.6418 106.567 100.129 112.982 100.819C119.396 101.51 125.875 100.375 131.677 97.5463C137.479 94.7171 142.371 90.3071 145.794 84.8203C149.216 79.3336 151.031 72.9914 151.031 66.5186C151.031 60.0458 149.216 53.7036 145.794 48.2168C142.371 42.73 137.479 38.32 131.677 35.4908C125.875 32.6617 119.396 31.5275 112.982 32.2178C106.567 32.9082 100.476 35.3953 95.4035 39.3949C99.4988 42.62 102.809 46.7375 105.084 51.4359C107.36 56.1342 108.54 61.2902 108.536 66.5138Z" fill="#1183DC"/>
<path d="M39.7656 66.5142C39.7658 60.0409 41.5812 53.6983 45.0043 48.2113C48.4274 42.7244 53.3201 38.3144 59.1232 35.4857C64.9263 32.6569 71.4055 31.5234 77.8203 32.2148C84.2351 32.9061 90.3265 35.3945 95.3984 39.3953C91.3047 42.6233 87.9952 46.7419 85.7194 51.4405C83.4437 56.1391 82.2612 61.2949 82.2612 66.519C82.2612 71.743 83.4437 76.8988 85.7194 81.5974C87.9952 86.296 91.3047 90.4147 95.3984 93.6427C90.3265 97.6435 84.2351 100.132 77.8203 100.823C71.4055 101.515 64.9263 100.381 59.1232 97.5523C53.3201 94.7235 48.4274 90.3136 45.0043 84.8266C41.5812 79.3396 39.7658 72.997 39.7656 66.5238V66.5142Z" fill="#FCB316"/>
<path d="M43.0506 45.1452V46.2568H42.6018V46.4868H43.7383V46.2568H43.2512V45.1452H43.0506ZM40.8445 45.1452V46.4868H41.1883L41.5894 45.5285L41.9905 46.4868H42.2961V45.1452H42.0478V46.1514L41.6754 45.2794H41.4175L41.045 46.1514V45.1356L40.8445 45.1452Z" fill="#FCB316"/>
</svg>
