<svg width="297" height="132" viewBox="0 0 297 132" fill="none" xmlns="http://www.w3.org/2000/svg">
<rect width="297" height="132" rx="30" fill="#F9F9F9"/>
<g clip-path="url(#clip0_0_1782)">
<path d="M191.254 65.6431V94H208.409V78.0492H225.675C234.693 78.0492 242.391 72.8985 245.36 65.6431H191.254Z" fill="#1183DC"/>
<path d="M190.484 40C190.539 41.44 190.759 42.88 191.089 44.2092C191.144 44.4862 191.254 44.8185 191.309 45.0954C191.364 45.2062 191.364 45.3169 191.419 45.4831C194.498 55.2862 203.571 62.3754 214.293 62.3754H245.965C246.185 61.2677 246.295 60.16 246.295 58.9969C246.295 53.4585 243.93 48.4738 240.136 44.9846C236.782 41.8831 232.328 40 227.38 40H190.484V40Z" fill="url(#paint0_linear_0_1782)"/>
<path d="M160.848 45.7046L148.861 71.9015H147.651V40H130.605V94H145.067C148.861 94 152.325 91.7846 153.919 88.2954L165.906 62.0985H167.116V94H184.162V40H169.7C165.906 40 162.442 42.2154 160.848 45.7046Z" fill="#1183DC"/>
<path d="M81.3932 47.0892L88.5413 71.9015H89.751L96.8442 47.0892C98.0538 42.88 101.848 40 106.192 40H123.237V94H106.192V62.0985H104.982L95.1946 94H83.0427L73.2553 62.0985H72.0456V94H55V40H72.0456C76.3895 40 80.1835 42.88 81.3932 47.0892Z" fill="#1183DC"/>
</g>
<defs>
<linearGradient id="paint0_linear_0_1782" x1="190.475" y1="51.1945" x2="246.278" y2="51.1945" gradientUnits="userSpaceOnUse">
<stop stop-color="#02AFFF"/>
<stop offset="1" stop-color="#1F5BDE"/>
</linearGradient>
<clipPath id="clip0_0_1782">
<rect width="193" height="54" fill="white" transform="translate(55 40)"/>
</clipPath>
</defs>
</svg>
