<svg width="295" height="132" viewBox="0 0 295 132" fill="none" xmlns="http://www.w3.org/2000/svg">
<rect width="295" height="132" rx="30" fill="#F9F9F9"/>
<g clip-path="url(#clip0_0_1804)">
<path d="M106.461 102.607C106.158 101.765 105.608 101.19 105.21 100.444C104.243 99.1608 103.105 98.0504 101.968 96.9399C101.57 96.8059 101.399 96.423 101.02 96.2699C100.773 95.9444 100.375 95.7721 100.053 95.5232C99.4083 95.0254 98.7068 94.6042 97.9864 94.183C96.6213 93.3023 94.934 92.7471 93.2656 92.1727C91.4645 91.7324 89.5686 91.4069 87.5969 91.1389C85.6441 90.8517 83.6914 90.5837 82.2126 89.7987C81.3594 89.5498 80.7338 89.0712 79.9944 88.6883C79.3119 88.2288 78.5725 87.8459 78.0037 87.2715C77.3022 86.8503 76.8662 86.1419 76.3164 85.5676C76.1268 85.1847 75.8045 84.9549 75.6528 84.5337C75.4632 84.4571 75.4064 84.2274 75.2926 84.0934C75.1599 83.9402 75.1599 83.6339 74.9324 83.5765C74.8186 84.3614 74.8565 85.2995 74.9324 86.1037C75.0272 86.4483 75.0651 86.8695 75.1599 87.2141C75.2168 87.5204 75.5011 88.0182 75.3874 88.2479C69.4722 87.9416 65.1496 86.0462 61.3958 83.5573C59.5378 82.3129 57.9452 80.8004 56.4664 79.173C55.8218 78.2732 55.1204 77.4116 54.5516 76.4161C53.9639 75.4397 53.4709 74.3292 52.9401 73.2954C52.068 71.0554 51.2528 68.7579 50.9494 65.9435C50.5513 63.3206 50.6461 59.9702 51.2338 57.5387C51.4423 56.1985 51.8784 55.069 52.2576 53.9011C52.504 53.365 52.7695 52.829 52.997 52.2737C53.3193 51.8142 53.4899 51.1824 53.888 50.7804C54.9687 48.7318 56.5802 47.2002 58.2296 45.726C60.0118 44.405 62.0404 43.3328 64.486 42.6819C66.8369 42.1458 70.041 42.0501 72.5815 42.6053C77.7383 43.6775 81.6249 46.0132 84.8858 48.9999C88.1846 51.9291 90.7251 55.6433 92.4693 60.1616C94.2704 64.4502 94.8961 71.132 93.2846 75.9949C92.621 75.612 91.9574 75.2482 91.2939 74.8844C90.4976 74.6547 89.7203 74.3867 88.7913 74.2909C87.6727 74.2718 86.5731 74.2909 85.8527 74.6547C87.3125 74.5015 88.488 74.9036 89.398 75.2482C89.9288 75.4588 90.2322 75.5928 90.6493 75.8417C91.4645 76.3204 92.1849 76.7607 92.7916 77.4116C94.5169 78.9433 95.7492 80.9727 96.3369 83.653C96.3369 83.7296 96.4317 83.7105 96.4128 83.5765C96.4886 83.5573 96.5265 83.4999 96.5644 83.4233C96.6592 83.3084 96.773 83.1936 96.8678 83.0595C97.0574 82.8298 97.247 82.6 97.3797 82.3129C97.7778 81.8342 98.1001 81.2982 98.4035 80.7429C99.1049 79.7091 99.6358 78.5221 100.242 77.3925C101.285 74.9802 102.138 72.3764 102.669 69.428C103.731 62.8803 102.461 56.6772 100.242 52.1014C97.9674 47.4874 94.7823 43.7923 90.6682 41.0162C86.5162 38.2593 81.6628 36.2299 74.9893 36.0384C74.9513 35.9044 74.8945 36.0576 74.7617 36.0384C71.2354 35.9236 68.3916 36.4213 65.5667 37.1489C64.2585 37.5892 62.8935 37.9721 61.737 38.5656C60.4099 39.006 59.3482 39.7335 58.1348 40.2696C57.6988 40.6908 57.0352 40.9014 56.5802 41.3034C55.9925 41.5906 55.5564 42.0501 54.9687 42.3373C54.0208 43.1797 53.0159 43.9263 52.0869 44.7879C51.1769 45.6303 50.3807 46.5876 49.5085 47.4682C49.3758 47.7746 49.1483 47.9852 48.9208 48.2149C48.7691 48.5021 48.5796 48.751 48.3331 48.9616C48.2383 49.3062 47.935 49.4402 47.8212 49.7848C47.5747 49.9763 47.5179 50.3592 47.2335 50.5315C46.987 51.1442 46.551 51.5845 46.2666 52.1589C45.9253 52.7141 45.6599 53.3267 45.3186 53.8628C44.7878 55.1073 44.219 56.3134 43.783 57.6536C43.328 58.9555 42.9488 60.3339 42.6834 61.8273C42.399 63.2249 42.1335 65.0437 42.1715 66.5179C41.9819 67.054 42.1335 68.0495 42.1715 68.6813C42.1715 68.7962 42.0956 68.8345 42.0956 68.9111C42.0956 69.6195 42.2852 70.481 42.3231 70.9214C42.4748 72.5487 42.7592 74.0612 43.2142 75.3822C43.4986 76.8564 44.1053 78.0051 44.5413 79.3262C45.2049 80.4366 45.6599 81.7576 46.4562 82.7532C47.0439 83.9211 47.8781 84.8401 48.6744 85.7973C49.5275 86.7163 50.3807 87.6544 51.4044 88.4011C53.2814 90.0476 55.4806 91.3686 57.8884 92.4982C62.3816 94.6999 69.093 96.1358 75.122 95.7721C76.6576 95.5615 78.2123 95.37 79.6152 95.0254C80.9044 94.5468 82.4022 94.2596 83.9568 94.0681C87.5021 93.8384 90.5734 94.1639 93.3035 94.968C96.0715 95.7146 98.4603 96.8442 100.527 98.3184C101.626 98.9694 102.536 99.8118 103.465 100.616C104.413 101.439 105.172 102.454 106.044 103.373C106.158 103.717 106.385 103.966 106.556 104.273C106.783 104.522 106.67 105.096 107.219 105.019C107.561 104.675 107.162 104.177 107.143 103.756C106.802 103.392 106.726 102.913 106.461 102.607Z" fill="#FCB316"/>
<path d="M92.6957 82.2362C92.6199 82.2362 92.6009 82.2936 92.5441 82.3128C92.4113 82.6 92.4682 83.0595 92.5441 83.3466C92.9422 84.1699 93.0749 85.242 93.947 85.5866C94.3641 85.4526 94.3262 84.84 94.3072 84.2465C94.1176 83.5189 93.8522 82.868 93.4162 82.3894C93.1128 82.2745 92.9043 82.083 92.6957 82.2362ZM87.5389 84.323C87.5389 84.2848 87.482 84.2465 87.4631 84.323C86.7426 84.2273 86.4962 84.6294 86.136 84.9166C85.5103 86.5822 86.5151 88.2096 88.2783 88.1904C88.9798 88.0181 89.4158 87.5586 89.5296 86.7737C89.4348 85.376 88.8471 84.4762 87.5389 84.323Z" fill="#FCB316"/>
<path d="M143.045 84.57C143.457 86.3236 144.336 87.5761 145.324 88.7451C146.312 89.9141 147.465 90.8883 148.865 91.612C150.183 92.447 151.61 93.1428 153.258 93.616C154.054 93.8943 154.822 94.2283 155.811 94.3397C156.497 94.7294 157.32 94.9242 157.375 95.9262C157.348 97.1231 156.552 97.5684 155.536 97.7911C154.52 97.5684 153.258 97.5962 152.407 97.2066C150.265 96.9561 148.536 96.2602 146.724 95.62C143.265 94.2562 140.355 92.28 137.939 89.8584C137.445 89.0234 136.759 88.3554 136.237 87.5482C135.716 86.7411 135.359 85.7669 134.81 84.9597C130.582 84.403 127.7 82.4546 125.174 80.2001C122.841 77.5002 120.974 74.2715 120.206 69.9851C119.3 65.8657 119.574 60.7164 120.645 56.7362C122.978 49.0262 127.865 43.9048 137.088 43.209C139.641 43.2925 141.865 43.5987 143.896 44.378C145.955 45.1295 147.904 46.5212 149.442 47.9686C149.579 48.0799 149.634 48.1077 149.716 48.2469C150.046 48.7201 150.842 49.3881 151.281 49.9726C151.363 50.0839 151.336 50.2788 151.418 50.4179C151.583 50.6684 151.83 50.7798 151.995 51.0024C152.077 51.1416 152.05 51.3086 152.132 51.42C152.242 51.587 152.379 51.8375 152.544 52.1436C152.599 52.255 152.791 52.3385 152.818 52.422C153.065 52.8951 153.175 53.4797 153.395 54.0085C153.614 54.5652 153.916 55.0384 154.109 55.595C154.658 57.2372 155.014 59.1856 155.234 61.1896C155.783 66.9791 154.658 72.1561 152.544 75.9972C151.556 78.0012 150.183 79.6434 148.563 81.0351C147.081 82.6217 145.049 83.568 143.045 84.57ZM136.237 48.3304C135.002 48.4139 134.261 48.9984 133.245 49.3324C132.586 49.9448 131.763 50.4179 131.269 51.1973C130.445 51.6705 130.226 52.7281 129.567 53.3405C129.018 54.7322 128.496 56.2909 128.139 58.1001C127.81 59.8814 127.59 61.8855 127.563 63.8617C127.535 68.8161 128.578 73.7427 130.527 76.6652C131.68 78.0847 133.08 79.2538 134.783 80.1166C135.771 80.2001 136.539 80.5341 137.61 80.562C138.214 80.3393 139.202 80.562 139.587 80.1166C140.465 80.1723 140.657 79.5878 141.426 79.5321C141.838 79.1146 142.277 78.7806 142.853 78.5301C143.375 77.9456 143.869 77.3611 144.418 76.8044C144.693 76.3869 144.857 75.8024 145.269 75.4962C147.74 70.7088 148.014 61.9411 146.395 56.3744C145.791 54.3425 144.94 52.7003 143.979 51.3365C142.936 50.2509 141.7 49.3324 140.3 48.6087C139.175 48.3582 138.104 48.0521 136.622 48.1912C136.539 48.1912 136.457 48.2191 136.485 48.3304C136.43 48.3304 136.347 48.3304 136.237 48.3304ZM166.187 44.2945C168.411 44.378 171.019 44.0997 172.995 44.4337C173.435 45.1295 173.27 45.9645 173.27 46.7439C173.435 57.2929 173.27 68.6212 173.27 79.3929C173.27 80.2558 173.297 81.1465 173.27 81.9815C173.242 82.7051 173.435 83.4845 172.995 84.1525C172.007 84.403 170.58 84.2917 169.317 84.2917C167.972 84.2917 166.654 84.4865 165.776 84.0133C165.528 71.2655 165.528 57.5156 165.776 44.7398C165.83 44.5172 165.968 44.378 166.187 44.2945ZM183.207 44.2945H189.878C190.482 45.1295 190.674 46.382 190.866 47.6067C192.87 55.3445 194.847 63.1102 196.686 71.0428C197.125 71.0985 196.988 70.5696 197.125 70.3191C197.318 70.1243 197.208 69.6511 197.4 69.4563C197.482 68.8161 197.867 68.4821 197.839 67.7306C198.333 66.7564 198.498 65.4204 198.965 64.4183C199.541 62.0803 200.31 59.9093 200.969 57.6547C201.6 55.3167 202.451 53.2013 202.945 50.7519C203.879 48.7757 204.098 46.0759 205.224 44.2945H208.051C209.067 46.2429 209.451 48.8314 210.33 50.9189C210.906 53.257 211.702 55.3724 212.306 57.6826C213.706 62.1638 215.161 66.5894 216.424 71.2098C217.001 70.3469 217.001 68.8996 217.412 67.8976C217.659 66.7564 217.879 65.5874 218.263 64.5853C219.361 60.0206 220.405 55.428 221.667 51.0581C222.134 48.7757 222.601 46.4377 223.369 44.4337C225.016 44.1832 227.542 44.1832 229.189 44.4337C229.326 46.1315 228.558 47.9686 228.064 49.4716C227.789 51.3086 227.13 52.7281 226.773 54.5095C225.758 57.7661 224.989 61.2175 223.946 64.4462C223.15 67.8976 222.079 71.0706 221.256 74.522C220.706 76.1085 220.322 77.8621 219.828 79.5599C219.279 81.1186 219.087 83.0392 218.263 84.3195H214.283C213.267 82.5103 212.91 80.0609 212.004 78.1404C210.028 71.7943 207.832 65.6987 205.91 59.2969C205.251 59.9928 205.251 61.4123 204.784 62.303C204.483 63.3885 204.181 64.474 203.796 65.476C203.247 67.6749 202.424 69.5398 201.957 71.7943C201.161 73.7705 200.584 75.9694 199.98 78.1404C199.157 80.0331 198.855 82.4547 197.839 84.1803C196.796 84.5144 195.149 84.236 193.859 84.3195C192.87 83.1783 192.761 81.1186 192.157 79.5599C191.69 77.9456 191.361 76.1642 190.757 74.6612C189.988 71.1541 188.835 68.0646 188.066 64.5853C187.051 61.3566 186.172 57.9887 185.239 54.6487C184.717 53.0622 184.333 51.3643 183.811 49.7499C183.564 48.0242 182.411 46.4655 182.823 44.5728C182.878 44.4337 183.043 44.3502 183.207 44.2945ZM239.236 44.2945C241.46 44.378 244.04 44.0997 246.044 44.4337C246.539 45.9367 246.319 47.5511 246.319 49.1654V79.3651C246.319 81.0073 246.511 82.5938 246.044 84.1247C244.507 84.2917 242.256 84.3752 240.362 84.2638C239.813 84.236 239.154 84.403 238.797 83.9855C238.303 82.4825 238.523 80.896 238.523 79.2259V49.3324C238.523 47.5232 238.358 45.7697 238.797 44.5728C238.907 44.4337 239.072 44.3502 239.236 44.2945Z" fill="#1183DC"/>
</g>
<defs>
<clipPath id="clip0_0_1804">
<rect width="234" height="69" fill="white" transform="translate(42 36)"/>
</clipPath>
</defs>
</svg>
