<svg width="188" height="132" viewBox="0 0 188 132" fill="none" xmlns="http://www.w3.org/2000/svg">
<rect width="188" height="132" rx="30" fill="#F9F9F9"/>
<path d="M108.645 39.3574H78.5605V93.6048H108.645V39.3574Z" fill="#D24E00"/>
<path d="M80.4643 66.4862C80.4588 61.2611 81.6383 56.1031 83.9135 51.403C86.1887 46.7029 89.4999 42.5839 93.5965 39.3578C88.5243 35.3582 82.4328 32.8711 76.0184 32.1807C69.604 31.4903 63.1254 32.6245 57.3231 35.4537C51.5208 38.2829 46.6288 42.6929 43.2063 48.1797C39.7837 53.6664 37.9688 60.0086 37.9688 66.4814C37.9688 72.9542 39.7837 79.2964 43.2063 84.7832C46.6288 90.27 51.5208 94.68 57.3231 97.5092C63.1254 100.338 69.604 101.473 76.0184 100.782C82.4328 100.092 88.5243 97.6047 93.5965 93.6051C89.5012 90.38 86.1907 86.2625 83.9156 81.5641C81.6404 76.8658 80.4602 71.7098 80.4643 66.4862Z" fill="#FF5F00"/>
<path d="M149.234 66.4858C149.234 72.9591 147.419 79.3017 143.996 84.7887C140.573 90.2756 135.68 94.6856 129.877 97.5143C124.074 100.343 117.595 101.477 111.18 100.785C104.765 100.094 98.6735 97.6055 93.6016 93.6047C97.6953 90.3767 101.005 86.2581 103.281 81.5595C105.556 76.8609 106.739 71.7051 106.739 66.481C106.739 61.257 105.556 56.1012 103.281 51.4026C101.005 46.704 97.6953 42.5853 93.6016 39.3573C98.6735 35.3565 104.765 32.8682 111.18 32.1768C117.595 31.4855 124.074 32.619 129.877 35.4477C135.68 38.2765 140.573 42.6864 143.996 48.1734C147.419 53.6604 149.234 60.003 149.234 66.4762V66.4858Z" fill="#FCB316"/>
<path d="M145.949 87.8548V86.7432H146.398V86.5132H145.262V86.7432H145.749V87.8548H145.949ZM148.156 87.8548V86.5132H147.812L147.411 87.4715L147.009 86.5132H146.704V87.8548H146.952V86.8486L147.325 87.7206H147.582L147.955 86.8486V87.8644L148.156 87.8548Z" fill="#FCB316"/>
</svg>
