<svg width="161" height="132" viewBox="0 0 161 132" fill="none" xmlns="http://www.w3.org/2000/svg">
<rect width="161" height="132" rx="30" fill="#F9F9F9"/>
<path fill-rule="evenodd" clip-rule="evenodd" d="M51.7509 59.1907C51.7509 54.7978 52.1068 52.0099 60.8985 45.2189C68.1772 39.5964 91.5078 20.3833 91.5078 20.3833V52.4562H109.25V98.6172H57.2924C54.2446 98.6172 51.75 96.0358 51.75 92.8817L51.7509 59.1907Z" fill="#FCB316"/>
<path fill-rule="evenodd" clip-rule="evenodd" d="M91.5071 52.4556V71.0395L58.9043 94.0229L100.125 80.1445V52.4556H91.5071Z" fill="#D08E00"/>
<path fill-rule="evenodd" clip-rule="evenodd" d="M76.6092 51.495C78.5159 49.1441 81.3004 48.3144 82.8293 49.6418C84.3582 50.9696 84.0526 53.9517 82.1459 56.3026C80.2407 58.6531 77.4551 59.4819 75.9261 58.1542C74.3972 56.8268 74.7037 53.8455 76.6092 51.495Z" fill="#15222C"/>
</svg>
