<?xml version="1.0" encoding="utf-8"?><svg xmlns="http://www.w3.org/2000/svg" xmlns:xlink="http://www.w3.org/1999/xlink"><symbol viewBox="0 0 30 30" id="arrow" xmlns="http://www.w3.org/2000/svg"><path d="M9.4297 4.10743C9.12721 4.25003 8.23702 5.15751 8.10738 5.45136C7.97774 5.74089 7.97774 6.15574 8.10738 6.44527C8.18516 6.62676 8.88521 7.3441 12.4028 10.866L16.6031 15.0663L12.3855 19.2926C7.70981 23.9682 8.00366 23.6398 8.00366 24.2275C8.00798 24.6597 8.12034 24.8541 8.68643 25.4202C9.27413 26.0079 9.48588 26.1289 9.94826 26.1289C10.1773 26.1289 10.3026 26.103 10.4668 26.0252C10.6397 25.9431 11.6595 24.9449 15.7864 20.8094C19.9824 16.6047 20.9028 15.6627 20.9504 15.5201C21.0454 15.2435 21.0238 14.7768 20.9115 14.5261C20.8294 14.3447 19.9608 13.4588 15.7691 9.26709C10.1686 3.66665 10.5446 4.00372 9.94826 4.00372C9.71923 4.00372 9.59391 4.02964 9.4297 4.10743Z"/></symbol><symbol viewBox="0 0 40 40" id="arrow-link" xmlns="http://www.w3.org/2000/svg"><path d="M9.86133 31.2461L30.9863 10.1211M30.9863 10.1211V30.4011M30.9863 10.1211H10.7063"/></symbol><symbol viewBox="0 0 34 34" id="calendar" xmlns="http://www.w3.org/2000/svg"><path d="M31.4375 8.74991C31.4375 7.65589 31.0029 6.60668 30.2293 5.83309C29.4557 5.0595 28.4065 4.62491 27.3125 4.62491H26.2812V3.62266C26.2812 3.06772 25.8546 2.59141 25.2996 2.56369C25.1602 2.55698 25.0208 2.57864 24.89 2.62737C24.7592 2.67609 24.6397 2.75087 24.5386 2.84717C24.4375 2.94347 24.3571 3.05929 24.3021 3.1876C24.2471 3.31592 24.2188 3.45406 24.2188 3.59366V4.62491H9.78125V3.62266C9.78125 3.06772 9.35457 2.59141 8.79963 2.56369C8.66019 2.55698 8.52085 2.57864 8.39003 2.62737C8.25922 2.67609 8.13965 2.75087 8.03859 2.84717C7.93753 2.94347 7.85707 3.05929 7.8021 3.1876C7.74712 3.31592 7.71876 3.45406 7.71875 3.59366V4.62491H6.6875C5.59348 4.62491 4.54427 5.0595 3.77068 5.83309C2.9971 6.60668 2.5625 7.65589 2.5625 8.74991V9.52334C2.5625 9.59172 2.58966 9.6573 2.63801 9.70564C2.68636 9.75399 2.75194 9.78116 2.82031 9.78116H31.1797C31.2481 9.78116 31.3136 9.75399 31.362 9.70564C31.4103 9.6573 31.4375 9.59172 31.4375 9.52334V8.74991ZM2.5625 27.3124C2.5625 28.4064 2.9971 29.4556 3.77068 30.2292C4.54427 31.0028 5.59348 31.4374 6.6875 31.4374H27.3125C28.4065 31.4374 29.4557 31.0028 30.2293 30.2292C31.0029 29.4556 31.4375 28.4064 31.4375 27.3124V12.037C31.4375 11.9857 31.4171 11.9366 31.3809 11.9003C31.3446 11.864 31.2954 11.8437 31.2441 11.8437H2.75586C2.70458 11.8437 2.6554 11.864 2.61913 11.9003C2.58287 11.9366 2.5625 11.9857 2.5625 12.037V27.3124ZM24.7344 13.9062C25.0403 13.9062 25.3394 13.9969 25.5938 14.1669C25.8482 14.3368 26.0464 14.5784 26.1635 14.8611C26.2806 15.1437 26.3112 15.4547 26.2515 15.7548C26.1918 16.0549 26.0445 16.3305 25.8282 16.5468C25.6118 16.7632 25.3362 16.9105 25.0362 16.9702C24.7361 17.0299 24.4251 16.9992 24.1424 16.8822C23.8598 16.7651 23.6182 16.5668 23.4482 16.3124C23.2782 16.058 23.1875 15.759 23.1875 15.453C23.1875 15.0428 23.3505 14.6493 23.6406 14.3592C23.9307 14.0691 24.3241 13.9062 24.7344 13.9062ZM24.7344 19.0624C25.0403 19.0624 25.3394 19.1531 25.5938 19.3231C25.8482 19.4931 26.0464 19.7347 26.1635 20.0173C26.2806 20.3 26.3112 20.611 26.2515 20.9111C26.1918 21.2111 26.0445 21.4868 25.8282 21.7031C25.6118 21.9194 25.3362 22.0667 25.0362 22.1264C24.7361 22.1861 24.4251 22.1555 24.1424 22.0384C23.8598 21.9213 23.6182 21.7231 23.4482 21.4687C23.2782 21.2143 23.1875 20.9152 23.1875 20.6093C23.1875 20.199 23.3505 19.8056 23.6406 19.5155C23.9307 19.2254 24.3241 19.0624 24.7344 19.0624ZM19.5781 13.9062C19.8841 13.9062 20.1831 13.9969 20.4375 14.1669C20.6919 14.3368 20.8902 14.5784 21.0073 14.8611C21.1243 15.1437 21.155 15.4547 21.0953 15.7548C21.0356 16.0549 20.8883 16.3305 20.6719 16.5468C20.4556 16.7632 20.18 16.9105 19.8799 16.9702C19.5798 17.0299 19.2688 16.9992 18.9862 16.8822C18.7035 16.7651 18.4619 16.5668 18.2919 16.3124C18.122 16.058 18.0312 15.759 18.0312 15.453C18.0312 15.0428 18.1942 14.6493 18.4843 14.3592C18.7744 14.0691 19.1679 13.9062 19.5781 13.9062ZM19.5781 19.0624C19.8841 19.0624 20.1831 19.1531 20.4375 19.3231C20.6919 19.4931 20.8902 19.7347 21.0073 20.0173C21.1243 20.3 21.155 20.611 21.0953 20.9111C21.0356 21.2111 20.8883 21.4868 20.6719 21.7031C20.4556 21.9194 20.18 22.0667 19.8799 22.1264C19.5798 22.1861 19.2688 22.1555 18.9862 22.0384C18.7035 21.9213 18.4619 21.7231 18.2919 21.4687C18.122 21.2143 18.0312 20.9152 18.0312 20.6093C18.0312 20.199 18.1942 19.8056 18.4843 19.5155C18.7744 19.2254 19.1679 19.0624 19.5781 19.0624ZM19.5781 24.2187C19.8841 24.2187 20.1831 24.3094 20.4375 24.4794C20.6919 24.6493 20.8902 24.8909 21.0073 25.1736C21.1243 25.4562 21.155 25.7672 21.0953 26.0673C21.0356 26.3674 20.8883 26.643 20.6719 26.8593C20.4556 27.0757 20.18 27.223 19.8799 27.2827C19.5798 27.3424 19.2688 27.3117 18.9862 27.1947C18.7035 27.0776 18.4619 26.8793 18.2919 26.6249C18.122 26.3705 18.0312 26.0715 18.0312 25.7655C18.0312 25.3553 18.1942 24.9618 18.4843 24.6717C18.7744 24.3816 19.1679 24.2187 19.5781 24.2187ZM14.4219 19.0624C14.7278 19.0624 15.0269 19.1531 15.2813 19.3231C15.5357 19.4931 15.7339 19.7347 15.851 20.0173C15.9681 20.3 15.9987 20.611 15.939 20.9111C15.8793 21.2111 15.732 21.4868 15.5157 21.7031C15.2993 21.9194 15.0237 22.0667 14.7237 22.1264C14.4236 22.1861 14.1126 22.1555 13.8299 22.0384C13.5473 21.9213 13.3057 21.7231 13.1357 21.4687C12.9657 21.2143 12.875 20.9152 12.875 20.6093C12.875 20.199 13.038 19.8056 13.3281 19.5155C13.6182 19.2254 14.0116 19.0624 14.4219 19.0624ZM14.4219 24.2187C14.7278 24.2187 15.0269 24.3094 15.2813 24.4794C15.5357 24.6493 15.7339 24.8909 15.851 25.1736C15.9681 25.4562 15.9987 25.7672 15.939 26.0673C15.8793 26.3674 15.732 26.643 15.5157 26.8593C15.2993 27.0757 15.0237 27.223 14.7237 27.2827C14.4236 27.3424 14.1126 27.3117 13.8299 27.1947C13.5473 27.0776 13.3057 26.8793 13.1357 26.6249C12.9657 26.3705 12.875 26.0715 12.875 25.7655C12.875 25.3553 13.038 24.9618 13.3281 24.6717C13.6182 24.3816 14.0116 24.2187 14.4219 24.2187ZM9.26562 19.0624C9.57157 19.0624 9.87064 19.1531 10.125 19.3231C10.3794 19.4931 10.5777 19.7347 10.6948 20.0173C10.8118 20.3 10.8425 20.611 10.7828 20.9111C10.7231 21.2111 10.5758 21.4868 10.3594 21.7031C10.1431 21.9194 9.86747 22.0667 9.56741 22.1264C9.26734 22.1861 8.95632 22.1555 8.67366 22.0384C8.39101 21.9213 8.14942 21.7231 7.97945 21.4687C7.80947 21.2143 7.71875 20.9152 7.71875 20.6093C7.71875 20.199 7.88172 19.8056 8.17182 19.5155C8.46191 19.2254 8.85537 19.0624 9.26562 19.0624ZM9.26562 24.2187C9.57157 24.2187 9.87064 24.3094 10.125 24.4794C10.3794 24.6493 10.5777 24.8909 10.6948 25.1736C10.8118 25.4562 10.8425 25.7672 10.7828 26.0673C10.7231 26.3674 10.5758 26.643 10.3594 26.8593C10.1431 27.0757 9.86747 27.223 9.56741 27.2827C9.26734 27.3424 8.95632 27.3117 8.67366 27.1947C8.39101 27.0776 8.14942 26.8793 7.97945 26.6249C7.80947 26.3705 7.71875 26.0715 7.71875 25.7655C7.71875 25.3553 7.88172 24.9618 8.17182 24.6717C8.46191 24.3816 8.85537 24.2187 9.26562 24.2187Z"/></symbol><symbol viewBox="0 0 36 36" id="check" xmlns="http://www.w3.org/2000/svg"><path d="M13.5 24.255L8.29497 19.05C8.01451 18.7695 7.63411 18.612 7.23747 18.612C6.84083 18.612 6.46044 18.7695 6.17997 19.05C5.89951 19.3305 5.74194 19.7109 5.74194 20.1075C5.74194 20.3039 5.78063 20.4984 5.85578 20.6798C5.93094 20.8613 6.0411 21.0261 6.17997 21.165L12.45 27.435C13.035 28.02 13.98 28.02 14.565 27.435L30.435 11.565C30.7154 11.2845 30.873 10.9041 30.873 10.5075C30.873 10.1109 30.7154 9.73046 30.435 9.44999C30.1545 9.16953 29.7741 9.01196 29.3775 9.01196C28.9808 9.01196 28.6004 9.16953 28.32 9.44999L13.5 24.255Z"/></symbol><symbol viewBox="0 0 40 39" id="click" xmlns="http://www.w3.org/2000/svg"><path d="M17.0786 4.9991V16.7313C17.0786 16.9427 17.0786 19.3442 17.0786 19.563C17.0786 20.4873 16.798 22.0182 15.2712 20.9216L12.0744 17.1264C11.1016 15.971 9.37681 15.8245 8.22348 16.7952C7.06811 17.769 6.92062 19.4928 7.89133 20.6482L14.3284 28.2922C15.6045 29.8705 16.5153 30.7762 17.7439 32.1069C19.9453 34.4941 21.9663 36.4025 25.4396 36.4025C30.4613 36.4025 34.5319 32.3319 34.5319 27.3101V15.8369C34.5319 14.5113 33.458 13.4374 32.1335 13.4374C31.4175 13.4374 30.7831 13.7561 30.3426 14.2534V13.8789C30.3426 12.5543 29.2698 11.4805 27.9442 11.4805C27.2004 11.4805 26.5454 11.825 26.1049 12.3563C25.8801 11.2649 24.9145 10.4427 23.756 10.4427C22.9896 10.4427 22.3149 10.809 21.8765 11.3681V4.9991C21.8765 3.67452 20.8026 2.59962 19.478 2.59962C18.1535 2.59962 17.0786 3.67452 17.0786 4.9991Z"/></symbol><symbol viewBox="0 0 36 36" id="close" xmlns="http://www.w3.org/2000/svg"><path d="M30 30L6 6M30 6L6 30"/></symbol><symbol viewBox="0 0 30 30" id="pen" xmlns="http://www.w3.org/2000/svg"><path d="M23.8062 9.25122C24.2787 8.77872 24.5387 8.15122 24.5387 7.48372C24.5387 6.81622 24.2787 6.18872 23.8062 5.71622L21.8237 3.73372C21.3512 3.26122 20.7238 3.00122 20.0562 3.00122C19.3888 3.00122 18.7612 3.26122 18.29 3.73247L5 16.9812V22.5H10.5163L23.8062 9.25122ZM20.0562 5.50122L22.04 7.48247L20.0525 9.46247L18.07 7.48122L20.0562 5.50122ZM7.5 20V18.0187L16.3 9.24622L18.2825 11.2287L9.48375 20H7.5ZM5 25H25V27.5H5V25Z"/></symbol><symbol viewBox="0 0 30 30" id="profile--about" xmlns="http://www.w3.org/2000/svg"><path fill-rule="evenodd" clip-rule="evenodd" d="M14.9993 27.4999C9.10677 27.4999 6.16049 27.4999 4.32992 25.6693C2.49933 23.8388 2.49933 20.8924 2.49933 14.9999C2.49933 9.10732 2.49933 6.16104 4.32992 4.33047C6.16049 2.49988 9.10677 2.49988 14.9993 2.49988C20.8918 2.49988 23.8382 2.49988 25.6687 4.33047C27.4993 6.16104 27.4993 9.10732 27.4993 14.9999C27.4993 20.8924 27.4993 23.8388 25.6687 25.6693C23.8382 27.4999 20.8918 27.4999 14.9993 27.4999ZM14.9993 22.1874C15.5171 22.1874 15.9368 21.7676 15.9368 21.2499V13.7499C15.9368 13.2321 15.5171 12.8124 14.9993 12.8124C14.4816 12.8124 14.0618 13.2321 14.0618 13.7499V21.2499C14.0618 21.7676 14.4816 22.1874 14.9993 22.1874ZM14.9993 8.74988C15.6897 8.74988 16.2493 9.30953 16.2493 9.99988C16.2493 10.6902 15.6897 11.2499 14.9993 11.2499C14.309 11.2499 13.7493 10.6902 13.7493 9.99988C13.7493 9.30953 14.309 8.74988 14.9993 8.74988Z"/></symbol><symbol viewBox="0 0 30 30" id="profile--documents" xmlns="http://www.w3.org/2000/svg"><g clip-path="url(#jclip0_46_1413)"><path fill-rule="evenodd" clip-rule="evenodd" d="M14.994 2.5V10.625C14.994 11.6605 15.8335 12.5 16.869 12.5H24.994V25C24.994 26.3808 23.8748 27.5 22.494 27.5H7.49405C6.11334 27.5 4.99405 26.3808 4.99405 25V5C4.99405 3.61929 6.11334 2.5 7.49405 2.5H14.994ZM18.744 18.75H11.244C10.5537 18.75 9.99405 19.3096 9.99405 20C9.99405 20.6904 10.5537 21.25 11.244 21.25H18.744C19.4344 21.25 19.994 20.6904 19.994 20C19.994 19.3096 19.4344 18.75 18.744 18.75ZM12.494 13.75H11.244C10.5537 13.75 9.99405 14.3096 9.99405 15C9.99405 15.6904 10.5537 16.25 11.244 16.25H12.494C13.1844 16.25 13.744 15.6904 13.744 15C13.744 14.3096 13.1844 13.75 12.494 13.75ZM17.494 2.5542C17.9639 2.65369 18.3992 2.88739 18.744 3.23224L24.2618 8.75C24.6067 9.09485 24.8404 9.53008 24.9398 10H17.494V2.5542Z"/></g><defs><clipPath id="jclip0_46_1413"><rect width="30" height="30"/></clipPath></defs></symbol><symbol viewBox="0 0 30 30" id="profile--exit" xmlns="http://www.w3.org/2000/svg"><path fill-rule="evenodd" clip-rule="evenodd" d="M12.1341 3.01075C11.25 3.79448 11.25 5.22811 11.25 8.09537V21.9044C11.25 24.7716 11.25 26.2052 12.1341 26.989C13.0181 27.7727 14.3694 27.537 17.072 27.0656L19.983 26.558C22.9761 26.0359 24.4726 25.7749 25.3614 24.677C26.25 23.5792 26.25 21.9915 26.25 18.816V11.1838C26.25 8.00826 26.25 6.42052 25.3614 5.3227C24.4726 4.22486 22.9761 3.96385 19.983 3.4418L17.072 2.93407C14.3694 2.4627 13.0181 2.22701 12.1341 3.01075ZM15 12.7106C15.5177 12.7106 15.9375 13.1499 15.9375 13.6917V16.308C15.9375 16.8499 15.5177 17.2891 15 17.2891C14.4822 17.2891 14.0625 16.8499 14.0625 16.308V13.6917C14.0625 13.1499 14.4822 12.7106 15 12.7106Z"/><path d="M9.43396 5.62488C6.86111 5.62863 5.51999 5.6852 4.66529 6.5399C3.75 7.45519 3.75 8.92833 3.75 11.8746V18.1246C3.75 21.0709 3.75 22.544 4.66529 23.4594C5.51999 24.314 6.86111 24.3706 9.43396 24.3744C9.37481 23.5953 9.3749 22.6945 9.37501 21.7209V8.27825C9.3749 7.30473 9.37481 6.404 9.43396 5.62488Z"/></symbol><symbol viewBox="0 0 30 30" id="profile--feedback" xmlns="http://www.w3.org/2000/svg"><path d="M25 2.5H5C3.625 2.5 2.5125 3.625 2.5125 5L2.5 27.5L7.5 22.5H25C26.375 22.5 27.5 21.375 27.5 20V5C27.5 3.625 26.375 2.5 25 2.5ZM7.5 11.25H22.5V13.75H7.5V11.25ZM17.5 17.5H7.5V15H17.5V17.5ZM22.5 10H7.5V7.5H22.5V10Z"/></symbol><symbol viewBox="0 0 30 30" id="profile--news" xmlns="http://www.w3.org/2000/svg"><path d="M23.5739 6.16052V21.9641C23.5739 22.26 23.8138 22.4998 24.1096 22.4998C24.3726 22.4998 24.5914 22.3103 24.6367 22.0604L24.6453 21.9641V7.49981H25.9846C26.9684 7.49981 27.7752 8.25743 27.8534 9.22103L27.8596 9.37481V22.232C27.8596 24.0888 26.4063 25.6061 24.5751 25.7086L24.3775 25.7141H5.62749C3.77067 25.7141 2.2533 24.2607 2.15086 22.4295L2.14535 22.232V6.16052C2.14535 5.17677 2.90297 4.36996 3.86657 4.29174L4.02035 4.28552H21.6989C22.6827 4.28552 23.4895 5.04314 23.5677 6.00674L23.5739 6.16052ZM10.4452 13.9321H7.77035C6.78659 13.9321 5.97978 14.6897 5.90156 15.6533L5.89535 15.8071V18.482C5.89535 19.4657 6.65297 20.2725 7.61657 20.3507L7.77035 20.357H10.4452C11.429 20.357 12.2358 19.5993 12.314 18.6357L12.3202 18.482V15.8071C12.3202 14.8233 11.5626 14.0165 10.599 13.9383L10.4452 13.9321ZM19.0203 18.7498H15.2703L15.1613 18.7571C14.7691 18.8104 14.4668 19.1466 14.4668 19.5534C14.4668 19.9602 14.7691 20.2964 15.1613 20.3496L15.2703 20.357H19.0203L19.1294 20.3496C19.5216 20.2964 19.8239 19.9602 19.8239 19.5534C19.8239 19.1466 19.5216 18.8104 19.1294 18.7571L19.0203 18.7498ZM7.77035 15.5392H10.4452C10.572 15.5392 10.6782 15.6274 10.706 15.7457L10.7131 15.8071V18.482C10.7131 18.6088 10.6249 18.715 10.5066 18.7427L10.4452 18.7498H7.77035C7.64355 18.7498 7.53733 18.6617 7.50957 18.5434L7.50249 18.482V15.8071C7.50249 15.6803 7.5906 15.5741 7.70893 15.5463L7.77035 15.5392ZM19.0203 13.9321H15.2703L15.1613 13.9394C14.7691 13.9926 14.4668 14.3289 14.4668 14.7357C14.4668 15.1425 14.7691 15.4787 15.1613 15.5319L15.2703 15.5392H19.0203L19.1294 15.5319C19.5216 15.4787 19.8239 15.1425 19.8239 14.7357C19.8239 14.3289 19.5216 13.9926 19.1294 13.9394L19.0203 13.9321ZM19.0203 9.10337H6.69892L6.58988 9.11071C6.19766 9.16392 5.89535 9.50013 5.89535 9.90694C5.89535 10.3138 6.19766 10.65 6.58988 10.7032L6.69892 10.7105H19.0203L19.1294 10.7032C19.5216 10.65 19.8239 10.3138 19.8239 9.90694C19.8239 9.50013 19.5216 9.16392 19.1294 9.11071L19.0203 9.10337Z"/></symbol><symbol viewBox="0 0 30 30" id="profile--newsletter" xmlns="http://www.w3.org/2000/svg"><path d="M12.5022 25H17.5022C17.5022 25.6631 17.2388 26.299 16.7699 26.7678C16.3011 27.2366 15.6652 27.5 15.0022 27.5C14.3391 27.5 13.7032 27.2366 13.2344 26.7678C12.7656 26.299 12.5022 25.6631 12.5022 25ZM25.3047 19.7188L23.9209 17.4125C23.3974 16.539 23.1209 15.5397 23.1209 14.5213V11.2375C23.0386 9.13942 22.1472 7.15466 20.6336 5.69934C19.1201 4.24402 17.1019 3.43115 15.0022 3.43115C12.9025 3.43115 10.8843 4.24402 9.37071 5.69934C7.85715 7.15466 6.96577 9.13942 6.88343 11.2375V14.5213C6.8834 15.5397 6.6069 16.539 6.08343 17.4125L4.69968 19.7188C4.49525 20.06 4.38495 20.4494 4.38002 20.8472C4.3751 21.2449 4.47572 21.6369 4.67164 21.9831C4.86755 22.3293 5.15175 22.6174 5.49528 22.818C5.8388 23.0186 6.22937 23.1246 6.62718 23.125H23.3772C23.7753 23.1252 24.1663 23.0198 24.5104 22.8194C24.8544 22.6191 25.1392 22.3311 25.3355 21.9848C25.5319 21.6384 25.6328 21.2462 25.6281 20.8481C25.6233 20.45 25.513 20.0603 25.3084 19.7188H25.3047Z"/></symbol><symbol viewBox="0 0 30 30" id="profile--scoring" xmlns="http://www.w3.org/2000/svg"><path d="M9.21875 26.2812C8.46875 26.2604 7.755 26.0679 7.0775 25.7038C6.4 25.3396 5.75958 24.8029 5.15625 24.0938C4.32292 23.0938 3.67167 21.9013 3.2025 20.5163C2.73333 19.1313 2.49917 17.7092 2.5 16.25C2.5 14.5208 2.82833 12.8958 3.485 11.375C4.14167 9.85417 5.03208 8.53125 6.15625 7.40625C7.28125 6.28125 8.60417 5.39083 10.125 4.735C11.6458 4.07917 13.2708 3.75083 15 3.75C16.7292 3.75 18.3542 4.08333 19.875 4.75C21.3958 5.41667 22.7188 6.32292 23.8438 7.46875C24.9688 8.61458 25.8596 9.95833 26.5162 11.5C27.1729 13.0417 27.5008 14.6979 27.5 16.4688C27.5 18.0729 27.2396 19.5729 26.7187 20.9688C26.1979 22.3646 25.4583 23.5417 24.5 24.5C23.9167 25.0833 23.3021 25.5263 22.6562 25.8288C22.0104 26.1313 21.3542 26.2821 20.6875 26.2812C20.3125 26.2812 19.9375 26.2346 19.5625 26.1413C19.1875 26.0479 18.8125 25.9071 18.4375 25.7188L16.6875 24.8438C16.4375 24.7188 16.1717 24.625 15.89 24.5625C15.6083 24.5 15.3117 24.4688 15 24.4688C14.6875 24.4688 14.3904 24.5 14.1088 24.5625C13.8271 24.625 13.5617 24.7188 13.3125 24.8438L11.5625 25.7188C11.1667 25.9271 10.7758 26.0783 10.39 26.1725C10.0042 26.2667 9.61375 26.3029 9.21875 26.2812ZM15 18.75C15.6875 18.75 16.2763 18.5054 16.7663 18.0163C17.2563 17.5271 17.5008 16.9383 17.5 16.25C17.5 16.0833 17.4842 15.9167 17.4525 15.75C17.4208 15.5833 17.3742 15.4167 17.3125 15.25L18.875 13.1562C19.0833 13.4271 19.2658 13.7133 19.4225 14.015C19.5792 14.3167 19.7092 14.645 19.8125 15H22.375C22.0625 13.1667 21.2138 11.6667 19.8288 10.5C18.4438 9.33333 16.8342 8.75 15 8.75C13.1667 8.75 11.5521 9.33875 10.1563 10.5163C8.76042 11.6937 7.91667 13.1883 7.625 15H10.1875C10.4792 13.875 11.0729 12.9688 11.9687 12.2812C12.8646 11.5937 13.875 11.25 15 11.25C15.3542 11.25 15.6875 11.2812 16 11.3438C16.3125 11.4062 16.6146 11.5 16.9062 11.625L15.3125 13.7812C15.2708 13.7812 15.2188 13.7758 15.1562 13.765C15.0937 13.7542 15.0417 13.7492 15 13.75C14.3125 13.75 13.7242 13.995 13.235 14.485C12.7458 14.975 12.5008 15.5633 12.5 16.25C12.5 16.9375 12.745 17.5262 13.235 18.0163C13.725 18.5063 14.3133 18.7508 15 18.75Z"/></symbol><symbol viewBox="0 0 30 30" id="profile--subscription" xmlns="http://www.w3.org/2000/svg"><g clip-path="url(#pclip0_46_1411)"><path d="M-0.000854492 22.5V7.5C-0.000854492 6.50544 0.394234 5.55161 1.0975 4.84835C1.80076 4.14509 2.75458 3.75 3.74915 3.75H26.2491C27.2437 3.75 28.1975 4.14509 28.9008 4.84835C29.6041 5.55161 29.9991 6.50544 29.9991 7.5V22.5C29.9991 23.4946 29.6041 24.4484 28.9008 25.1517C28.1975 25.8549 27.2437 26.25 26.2491 26.25H3.74915C2.75458 26.25 1.80076 25.8549 1.0975 25.1517C0.394234 24.4484 -0.000854492 23.4946 -0.000854492 22.5ZM12.7304 9.54938C12.5902 9.44957 12.4253 9.39027 12.2536 9.37797C12.082 9.36568 11.9103 9.40087 11.7573 9.47968C11.6043 9.55849 11.476 9.67788 11.3863 9.82478C11.2967 9.97168 11.2493 10.1404 11.2491 10.3125V19.6875C11.2493 19.8596 11.2967 20.0283 11.3863 20.1752C11.476 20.3221 11.6043 20.4415 11.7573 20.5203C11.9103 20.5991 12.082 20.6343 12.2536 20.622C12.4253 20.6097 12.5902 20.5504 12.7304 20.4506L19.2929 15.7631C19.4144 15.6764 19.5135 15.5619 19.5818 15.4292C19.6502 15.2964 19.6858 15.1493 19.6858 15C19.6858 14.8507 19.6502 14.7036 19.5818 14.5708C19.5135 14.4381 19.4144 14.3236 19.2929 14.2369L12.7304 9.54938Z"/></g><defs><clipPath id="pclip0_46_1411"><rect width="30" height="30"/></clipPath></defs></symbol><symbol viewBox="0 0 30 30" id="profile--user" xmlns="http://www.w3.org/2000/svg"><path fill-rule="evenodd" clip-rule="evenodd" d="M7.49868 10C7.49868 5.85786 10.8565 2.5 14.9987 2.5C19.1408 2.5 22.4987 5.85786 22.4987 10C22.4987 14.1421 19.1408 17.5 14.9987 17.5C10.8565 17.5 7.49868 14.1421 7.49868 10Z"/><path fill-rule="evenodd" clip-rule="evenodd" d="M6.78756 21.128C8.81873 20.2765 11.528 19.9999 14.9989 19.9999C18.4626 19.9999 21.1678 20.2754 23.1971 21.1225C25.3754 22.0318 26.7124 23.5765 27.4251 25.8233C27.6899 26.6583 27.0636 27.4999 26.1979 27.4999H3.79213C2.92991 27.4999 2.30738 26.662 2.57001 25.8316C3.2806 23.585 4.61288 22.0396 6.78756 21.128Z"/></symbol><symbol viewBox="0 0 36 36" id="trash" xmlns="http://www.w3.org/2000/svg"><path d="M28.5 6H23.25L21.75 4.5H14.25L12.75 6H7.5V9H28.5M9 28.5C9 29.2956 9.31607 30.0587 9.87868 30.6213C10.4413 31.1839 11.2044 31.5 12 31.5H24C24.7956 31.5 25.5587 31.1839 26.1213 30.6213C26.6839 30.0587 27 29.2956 27 28.5V10.5H9V28.5Z"/></symbol></svg>