<svg width="33" height="33" viewBox="0 0 33 33" fill="none" xmlns="http://www.w3.org/2000/svg">
<path d="M30.8861 8.25C29.8273 8.73125 28.6861 9.0475 27.5036 9.19875C28.7136 8.47 29.6486 7.315 30.0886 5.92625C28.9473 6.61375 27.6823 7.095 26.3486 7.37C25.2623 6.1875 23.7361 5.5 22.0036 5.5C18.7723 5.5 16.1323 8.14 16.1323 11.3987C16.1323 11.8663 16.1873 12.32 16.2836 12.7463C11.3886 12.4988 7.02984 10.1475 4.12859 6.58625C3.61984 7.4525 3.33109 8.47 3.33109 9.5425C3.33109 11.5912 4.36234 13.4062 5.95734 14.4375C4.98109 14.4375 4.07359 14.1625 3.27609 13.75V13.7912C3.27609 16.6512 5.31109 19.0437 8.00609 19.58C7.14084 19.8168 6.23247 19.8497 5.35234 19.6763C5.7258 20.8484 6.45721 21.8741 7.44374 22.609C8.43028 23.344 9.62233 23.7513 10.8523 23.7738C8.76733 25.4244 6.18284 26.3166 3.52359 26.3037C3.05609 26.3037 2.58859 26.2762 2.12109 26.2212C4.73359 27.8988 7.84109 28.875 11.1686 28.875C22.0036 28.875 27.9573 19.8825 27.9573 12.0862C27.9573 11.825 27.9573 11.5775 27.9436 11.3162C29.0986 10.4912 30.0886 9.44625 30.8861 8.25Z" fill="#F9F9F9"/>
</svg>
