<svg width="33" height="33" viewBox="0 0 33 33" fill="none" xmlns="http://www.w3.org/2000/svg">
<path d="M9.54297 6.87491C9.54261 7.60426 9.25252 8.30358 8.73654 8.81905C8.22056 9.33452 7.52094 9.6239 6.79159 9.62354C6.06225 9.62317 5.36292 9.33309 4.84745 8.81711C4.33199 8.30112 4.0426 7.60151 4.04297 6.87216C4.04333 6.14282 4.33341 5.44349 4.8494 4.92802C5.36538 4.41255 6.065 4.12317 6.79434 4.12354C7.52369 4.1239 8.22302 4.41398 8.73849 4.92996C9.25395 5.44595 9.54333 6.14557 9.54297 6.87491ZM9.62547 11.6599H4.12547V28.8749H9.62547V11.6599ZM18.3155 11.6599H12.843V28.8749H18.2605V19.8412C18.2605 14.8087 24.8192 14.3412 24.8192 19.8412V28.8749H30.2505V17.9712C30.2505 9.48741 20.543 9.80366 18.2605 13.9699L18.3155 11.6599Z" fill="#F9F9F9"/>
</svg>
