<svg width="33" height="33" viewBox="0 0 33 33" fill="none" xmlns="http://www.w3.org/2000/svg">
<path d="M29.5666 25.274H26.4303C25.2436 25.274 24.8861 24.3128 22.759 22.1843C20.9 20.3927 20.1149 20.17 19.6446 20.17C18.9942 20.17 18.8169 20.3487 18.8169 21.2438V24.0653C18.8169 24.8285 18.5694 25.2753 16.5756 25.2753C14.6414 25.1454 12.7657 24.5578 11.1031 23.5609C9.44044 22.5641 8.03842 21.1865 7.0125 19.5416C4.57653 16.5097 2.8816 12.9513 2.0625 9.14934C2.0625 8.67909 2.24125 8.25284 3.13775 8.25284H6.27275C7.0785 8.25284 7.36863 8.61172 7.68488 9.44084C9.207 13.9206 11.8044 17.8173 12.859 17.8173C13.2633 17.8173 13.4392 17.6386 13.4392 16.6307V12.0162C13.3059 9.91109 12.188 9.73372 12.188 8.97197C12.2021 8.771 12.2941 8.58346 12.4443 8.44918C12.5945 8.31491 12.7911 8.24447 12.9924 8.25284H17.9204C18.5941 8.25284 18.8169 8.58834 18.8169 9.39409V15.6228C18.8169 16.2952 19.1056 16.518 19.3091 16.518C19.7134 16.518 20.0241 16.2952 20.7653 15.5555C22.3539 13.6181 23.6517 11.4596 24.618 9.14797C24.7169 8.87043 24.9039 8.63286 25.1504 8.47149C25.3969 8.31012 25.6894 8.23382 25.9834 8.25422H29.1197C30.0602 8.25422 30.2596 8.72447 30.0602 9.39547C28.9195 11.9508 27.508 14.3764 25.85 16.6307C25.5117 17.1463 25.377 17.4145 25.85 18.0195C26.1607 18.4897 27.2608 19.4082 27.9991 20.2813C29.0744 21.3538 29.9667 22.5941 30.6419 23.9526C30.9114 24.8271 30.4618 25.274 29.5666 25.274Z" fill="#F9F9F9"/>
</svg>
